<?xml version="1.0" encoding="utf-8"?>
<!-- Generator: Adobe Illustrator 21.1.0, SVG Export Plug-In . SVG Version: 6.00 Build 0)  -->
<svg version="1.1" id="Calque_1" xmlns="http://www.w3.org/2000/svg" xmlns:xlink="http://www.w3.org/1999/xlink" x="0px" y="0px"
	 viewBox="0 0 432 432" style="enable-background:new 0 0 432 432;" xml:space="preserve">
<style type="text/css">
	.st0{fill:#6E3C3F;}
	.st1{fill:#E3635C;}
	.st2{fill:#343434;}
	.st3{fill:#B1C369;}
	.st4{fill:#A490C4;}
	.st5{fill:#A2C1DB;}
	.st6{fill:#AFB67B;}
	.st7{fill:#4F4747;}
	.st8{fill:#AA6555;}
	.st9{fill:#93C6E3;}
	.st10{fill:#9C3A47;}
	.st11{fill:#52B5C3;}
	.st12{fill:#4B6C2A;}
	.st13{fill:#F4A38D;}
	.st14{fill:#6A8E2D;}
	.st15{fill:#EE7A9F;}
	.st16{fill:#F7DA6A;}
	.st17{fill:#E2991A;}
	.st18{fill:#A7B7BE;}
	.st19{fill:#E8D8CA;}
	.st20{fill:#A1A499;}
	.st21{fill:#C42725;}
	.st22{fill:#DBDC50;}
	.st23{fill:#020203;}
	.st24{fill:#92AA3C;}
	.st25{fill:#DFB87F;}
	.st26{fill:#7E4E1C;}
	.st27{fill:#BBCC53;}
	.st28{fill:#BA5C78;}
	.st29{fill:#85924F;}
	.st30{fill:#7C1142;}
	.st31{fill:#3B322E;}
	.st32{fill:#3B6C51;}
	.st33{fill:#C1292E;}
	.st34{fill:#CDCCCC;}
	.st35{fill:#886649;}
	.st36{fill:#F9B03D;}
	.st37{fill:#7D8C5B;}
	.st38{fill:#0D341E;}
	.st39{fill:#4D8F53;}
	.st40{fill:#1B1B1B;}
	.st41{fill:#F39323;}
	.st42{fill:#E7E6E6;}
	.st43{fill:#9A908B;}
	.st44{fill:#548981;}
	.st45{fill:#89525A;}
	.st46{fill:#AB9AB1;}
	.st47{fill:#5E676E;}
	.st48{fill:#DDDBCA;}
	.st49{fill:#56463E;}
	.st50{fill:#457885;}
	.st51{fill:#FFFFFF;}
	.st52{fill:#E69678;}
	.st53{fill:#A5AB9B;}
	.st54{fill:#855354;}
	.st55{fill:#DE8F6E;}
	.st56{fill:#C19D63;}
	.st57{fill:#837F62;}
	.st58{fill:#7D8769;}
	.st59{fill:#39466A;}
	.st60{fill:#4E4D4D;}
	.st61{fill:#673E44;}
	.st62{fill:#CEB283;}
	.st63{fill:#8890A4;}
	.st64{fill:#99B8B3;}
	.st65{fill:#A0747A;}
	.st66{fill:#BB839E;}
	.st67{fill:#E5DA9B;}
	.st68{fill:#BA9BC9;}
	.st69{fill:#8CACB5;}
	.st70{fill:#746458;}
	.st71{fill:#34354B;}
	.st72{fill:#6A8188;}
	.st73{fill:#B4B4B4;}
	.st74{fill:#97CB9E;}
	.st75{fill:#EE7896;}
	.st76{fill:#785F63;}
	.st77{fill:#E4A87C;}
	.st78{fill:#98D5E8;}
	.st79{fill:#CB6083;}
	.st80{fill:#9A9999;}
	.st81{fill:#C49A6C;}
	.st82{fill:#EC96AB;}
	.st83{fill:#ED87AB;}
	.st84{fill:#E2B471;}
	.st85{fill:#59B465;}
	.st86{fill:#4C996E;}
	.st87{fill:#A84F6B;}
	.st88{fill:#6BC4CD;}
	.st89{fill:#D6809C;}
	.st90{fill:#9DD0B3;}
	.st91{fill:#F3AA9A;}
	.st92{fill:#F29292;}
	.st93{fill:#BBBBBB;}
	.st94{fill:#5B5242;}
	.st95{fill:#8CCDC6;}
	.st96{fill:#EAC892;}
	.st97{fill:#F4B0CC;}
	.st98{fill:#7A6350;}
	.st99{fill:#9FC64B;}
	.st100{fill:#A68C6D;}
	.st101{fill:#F1D3D4;}
	.st102{fill:#BE8BBE;}
	.st103{fill:#F49523;}
	.st104{fill:#789835;}
	.st105{fill:#8FA369;}
	.st106{fill:#B17081;}
	.st107{fill:#E1B63D;}
	.st108{fill:#B05274;}
	.st109{fill:#CA9256;}
	.st110{fill:#A9A9AA;}
	.st111{fill:#BE202E;}
	.st112{fill-rule:evenodd;clip-rule:evenodd;fill:#A9A9AA;}
	.st113{fill:#89657B;}
	.st114{fill:#7F95B7;}
	.st115{fill:#9F9EC6;}
	.st116{fill:#7F6178;}
	.st117{fill:#6D8999;}
	.st118{fill:#A0C07E;}
	.st119{fill:#AA779F;}
	.st120{fill:#FBC063;}
	.st121{fill:#80A0C2;}
	.st122{fill:#CFAC75;}
	.st123{fill:#CD94C2;}
	.st124{fill:#AAB6DE;}
	.st125{fill:#CCAE99;}
	.st126{fill:#86B69F;}
	.st127{fill:#555D57;}
	.st128{fill:#86C1BB;}
	.st129{fill:#CA856C;}
	.st130{fill:#A4AA6D;}
	.st131{fill:#EAB978;}
	.st132{fill:#C091A7;}
	.st133{fill:#7E9DAD;}
	.st134{fill:#E5B1C8;}
	.st135{fill:#B9AEA3;}
	.st136{fill:#627F99;}
	.st137{fill:#E6A9AB;}
	.st138{fill:#913E41;}
	.st139{fill:#B46269;}
	.st140{fill:#C69C6C;}
	.st141{fill:#ED6D78;}
	.st142{fill:#C09047;}
	.st143{fill:#AE6C7B;}
	.st144{fill:#918FB2;}
	.st145{fill:#67816D;}
	.st146{fill:#B3B1A2;}
	.st147{fill:#A23A43;}
	.st148{fill:#6A907C;}
	.st149{fill:#B09294;}
	.st150{fill:#7B484D;}
	.st151{fill:#B78B5E;}
	.st152{fill:#DB7D82;}
	.st153{fill:#781611;}
	.st154{fill:#D38F8F;}
	.st155{fill:#965656;}
	.st156{fill:#9AA4B4;}
	.st157{fill:#754D24;}
	.st158{fill:#C8B7A7;}
	.st159{fill:#B4363B;}
	.st160{fill:#C77272;}
	.st161{fill:#91AF82;}
	.st162{fill:#C69462;}
	.st163{fill:#ED6C5B;}
	.st164{fill:#F3C186;}
	.st165{fill:#F3957D;}
	.st166{fill:#D1BBBC;}
</style>
<g>
	<path class="st89" d="M255.4,88c0.4-0.4,0.7-0.7,1-1c2.6-2.6,5.7-4.3,9.4-4.9c2.6-0.4,5.1-0.1,7.7,0.6c2,0.6,3.9,1.2,5.9,1.7
		c1.5,0.4,3.1,0.6,4.6,0.9c0.3,0.1,0.6,0.1,0.9,0.2c1,0.4,1.4,1.3,1.1,2.3c-0.2,0.6-0.5,1.1-0.8,1.6c-2,2.7-3.8,5.5-5.6,8.3
		c-1.2,1.9-2.7,3.5-4.6,4.8c-3.4,2.2-7,3.1-11,2.3c-1.2-0.2-2.3-0.8-3.4-1.5c-1-0.7-2-1.5-3.1-2.1c-1.1-0.7-2.4-1.3-3.5-1.9
		c-0.7-0.3-1.3-0.3-1.9,0.2c-1.5,1.3-2.9,2.5-4.4,3.9c0.2,0.3,0.3,0.5,0.4,0.8c2.4,4.2,3.3,8.7,2.5,13.4c-0.3,1.7-0.7,3.3-1.1,5
		c-0.8,2.7-2.1,5.1-4,7.2c-0.3,0.3-0.6,0.7-0.9,1.1c0.4,0.3,0.8,0.5,1.1,0.7c1.9,1.2,3.7,2.5,5.3,4.1c2.8,2.9,4.6,6.3,5.2,10.2
		c0.5,3.2,0.3,6.3-0.5,9.4c-0.2,0.7-0.4,1.5-0.6,2.3c0.6,0.4,1.2,0.8,1.8,1.2c1.2,0.9,2.5,1.8,3.6,2.9c2.8,2.6,4.7,5.8,5.6,9.5
		c1.1,4.5,1.4,9,0.3,13.6c-0.6,2.4-1.6,4.7-2.6,6.9c-0.3,0.7-0.7,1.4-1.1,2.1c-0.5,1-0.5,1,0.2,1.7c0.3,0.3,0.6,0.7,0.9,1
		c3.3,3.8,5.5,8.1,6.6,13c1,4.5,0.5,9-1.2,13.3c-0.8,2.2-1.8,4.2-3.3,6c-0.1,0.1-0.1,0.2-0.2,0.3c0.1,0.1,0.1,0.2,0.2,0.2
		c2,0.6,3.3,2,4.2,3.8c0.8,1.6,1.1,3.4,1.2,5.2c0.2,4.7,0,9.3-0.9,13.9c-0.1,0.7-0.4,1.5-0.7,2.2c-0.4,1-1.2,1.7-2.1,2.3
		c-1.7,1.1-3.5,1.6-5.5,1.8c-2,0.2-4.1,0.4-6.2,0.6c-0.3,0-0.6,0.1-0.9,0.1c-0.3,1.5-0.7,3-1,4.5c-1.7,7.3-3.5,14.6-5.5,21.8
		c-3.6,12.5-7.9,24.9-12.4,37.1c-3.4,9.1-7.1,18.1-11.6,26.7c-1.7,3.2-3.4,6.4-5.5,9.5c-1.5,2.2-3.1,4.3-5.1,6
		c-0.8,0.7-1.6,1.3-2.6,1.7c-2.1,1-4.1,0.8-6-0.7c-0.8-0.6-1.5-1.4-2.1-2.2c-0.9-1.1-1.7-2.3-2.4-3.5c-3.3-5.8-6.7-11.7-9.9-17.6
		c-4.6-8.5-8.3-17.4-11.9-26.4c-3.9-9.6-7.6-19.3-10.8-29.1c-3-9.4-5.9-18.8-8.2-28.4c0-0.2-0.1-0.4-0.2-0.7c-0.3,0-0.7,0-1,0
		c-2,0-3.9,0-5.9-0.4c-1.4-0.3-2.5-1-3.4-2.1c-0.8-1-1.4-2.2-1.8-3.5c-1-2.8-1.5-5.7-1.8-8.6c-0.3-2.7-0.2-5.4,0-8.1
		c0.2-1.9,0.8-3.7,1.9-5.4c0.7-1.1,1.8-1.9,3-2.5c-0.1-0.2-0.2-0.4-0.3-0.6c-2-3.3-3-6.9-3.5-10.7c-0.3-2.3-0.5-4.6-0.4-6.9
		c0.2-6.2,2.4-11.5,7.1-15.7c0.1-0.1,0.2-0.2,0.3-0.3c0,0,0-0.1,0-0.1c-0.1-0.1-0.2-0.3-0.3-0.5c-2.7-3.4-4-7.4-4.1-11.7
		c-0.1-3.6,0.4-7.1,2.1-10.3c1.7-3.4,4.1-6.3,7.1-8.7c1.3-1,2.7-2,4-3c0.6-0.5,0.9-1,0.9-1.8c-0.1-1.2-0.2-2.4-0.2-3.5
		c0-5.2,1.7-9.7,5.2-13.6c2.5-2.7,5.4-4.9,8.6-6.6c2.8-1.5,5.7-2.9,8.6-4.4c2.6-1.4,5.1-2.8,7.6-4.4c4.3-2.8,7.7-6.5,10.3-10.9
		c0.8-1.3,1.4-2.6,1.8-4.1c1.1-4.2-0.3-8.2-3.8-10.8c-1.7-1.3-3.6-2-5.8-1.9c-1.8,0-3.6,0.2-5.4,0.2c-0.5,0-1.1,0-1.6-0.1
		c-1.4-0.2-2.2-1.4-2-2.8c0.3-1.6,1.1-3,2.1-4.3c2.1-2.4,4.7-3.9,7.7-4.8c4.2-1.3,8.4-1.2,12.7-0.3c5,1,9.1,3.6,12.8,6.9
		c1.7,1.5,2.9,3.5,4,5.5c0.1,0.3,0.3,0.5,0.5,0.8c5.5-2.4,10.8-2.1,15.9,0.8c0.2-0.2,0.3-0.3,0.5-0.4c4.8-5.2,8.1-11.3,9.6-18.3
		c0.6-2.9,0.8-5.8,0.5-8.7c-0.1-1.5-0.4-2.9-0.5-4.4c0-0.1,0-0.2,0-0.3c-0.1-1,0.4-1.7,1.3-1.9c0.8-0.2,1.6,0.3,1.9,1.2
		c0.2,0.7,0.4,1.3,0.6,2c1,5,0.7,10-0.3,14.9c-0.3,1.4-0.7,2.8-1,4.2C255.6,87.3,255.5,87.6,255.4,88z M233.3,178.7
		c0.3,3.6,0.2,8-0.4,12.3c-0.2,1.2-0.5,2.4-0.9,3.5c-0.6,1.6-2.1,2.1-3.5,1.5c-0.7-0.3-1.1-0.8-1.3-1.4c-0.3-0.8-0.6-1.7-0.8-2.6
		c-0.2-1.8-0.4-3.7-0.5-5.5c-0.2-4.5-0.3-9-0.5-13.6c0-0.8-0.2-1.7-0.3-2.5c-0.1-0.7-0.6-1.1-1.3-1.4c-1.9-0.6-3.7-0.7-5.6-0.2
		c-2,0.5-2.3,0.9-2.4,2.9c0,1.9,0,3.8,0,5.6c0,4.4,0.2,8.8,1,13.1c0.4,2.2,1,4.3,2,6.2c1.6,2.8,4,4.4,7.1,5c0.7,0.1,1.4,0.1,2.1,0
		c2-0.3,3.5-1.4,4.8-2.9c1.6-2,2.5-4.4,2.9-7c0.5-2.8,0.6-5.7,0.7-8.5c0-3-0.1-6.1-0.1-9.1c0-1.2,0-2.4-0.1-3.6c0-0.7-0.1-1.3-0.2-2
		c-0.1-0.4-0.3-0.8-0.8-0.9c-0.9-0.3-1.6,0.1-1.8,1.1c-0.1,0.7-0.2,1.4-0.2,2.2C233.1,173.3,233.2,175.7,233.3,178.7z M191.2,184.1
		c0,3.2,0.7,6.4,1.8,9c0.6,1.3,1.3,2.6,2.3,3.7c2.8,3.4,9,4.5,12.8,0.4c0.7-0.8,1.3-1.7,1.8-2.6c2.2-4.1,3.1-8.4,2.2-13
		c-0.7-3.7-2.2-7.1-4.7-10c-3.1-3.6-8.6-3.6-11.8-0.3c-1.4,1.5-2.5,3.3-3.2,5.3C191.6,179.1,191.2,181.8,191.2,184.1z M235.6,279.7
		c0.1,0,0.1,0,0.2,0c0,0.2,0.1,0.3,0.1,0.5c0.3,3.1,0.6,6.3,1,9.4c0.1,1.2,0.3,2.4,0.4,3.5c0.1,1,0.7,1.7,1.5,2
		c1.3,0.3,2.4-0.5,2.5-1.8c0-1.1-0.1-2.1-0.2-3.2c-0.4-5.7-0.9-11.3-1.3-17c-0.1-1.1-0.3-2.2-0.6-3.3c-0.7-2.1-3-2.5-4.4-0.8
		c-0.4,0.5-0.8,1-1.1,1.6c-1,1.7-1.6,3.5-2.2,5.4c-0.1,0.3-0.2,0.5-0.3,0.9c-0.2-0.4-0.3-0.6-0.4-0.8c-0.6-1.3-1.2-2.6-1.9-3.9
		c-0.3-0.6-0.6-1.1-1-1.6c-0.6-0.7-1.3-1-2.3-0.8c-1,0.2-1.6,0.9-1.8,1.8c-0.1,0.6-0.2,1.3-0.2,1.9c-0.2,6.3,0.4,12.6,1,18.9
		c0,0.4,0.1,0.7,0.3,1.1c0.3,0.8,1.1,1.3,1.8,1.3c0.9-0.1,1.4-0.6,1.6-1.4c0.2-0.5,0.2-1.1,0.2-1.6c0-2.7-0.1-5.4-0.1-8.1
		c0-0.3,0-0.6,0.1-1c0.3,0.3,0.4,0.5,0.5,0.7c0.3,0.4,0.6,0.8,1,1.2c1.5,1.5,3.5,1.1,4.4-0.8c0.3-0.5,0.4-1.1,0.6-1.6
		C235.1,281.2,235.4,280.4,235.6,279.7z M227.3,247.8c0-0.4,0-0.7-0.1-1.1c-0.1-2.6-0.2-5.2-0.4-7.7c0-0.5,0-0.9,0-1.4
		c0-0.5,0.2-0.7,0.7-0.7c0.6,0,1.3-0.1,1.9-0.1c0.8-0.1,1.4-0.5,1.6-1.2c0.2-0.7-0.1-1.4-0.8-1.8c-0.5-0.3-1-0.5-1.5-0.6
		c-2.2-0.5-4.3-0.3-6.3,0.5c-1.6,0.6-2.7,1.8-3.2,3.4c-0.2,0.7-0.4,1.4-0.4,2.1c-0.1,2.3-0.2,4.7-0.2,7c0.1,3.7,0.4,7.4,0.8,11.1
		c0.1,1.4,0.4,2.8,0.7,4.1c0.4,1.6,1.5,2.6,3,3.1c0.4,0.1,0.9,0.3,1.3,0.4c1.8,0.4,3.6,0.2,5.3,0.1c0.7-0.1,1.3-0.2,1.9-0.4
		c0.8-0.3,1.2-0.9,1.2-1.7c0-0.7-0.5-1.4-1.2-1.6c-0.3-0.1-0.6-0.1-1-0.2c-0.6-0.1-1.3-0.1-1.9-0.2c-0.7-0.1-0.8-0.3-0.9-1
		c-0.1-1.7-0.2-3.4-0.3-5.1c-0.1-1-0.1-2-0.1-3c0.6,0,1,0,1.5,0c0.7-0.1,1.4-0.1,2-0.3c0.8-0.3,1.2-1,1.2-1.9
		c-0.1-0.8-0.6-1.4-1.5-1.6c-0.4-0.1-0.7-0.1-1.1-0.1C228.8,247.9,228.1,247.8,227.3,247.8z M208.4,248.1c0-0.7-0.1-1.4,0-2
		c0.2-0.9,0.4-1.8,0.7-2.7c0.4-0.9,0.8-1,1.6-0.5c0.3,0.2,0.5,0.3,0.8,0.5c0.8,0.4,1.6,0.2,2-0.6c0.4-0.6,0.5-1.4,0.4-2.1
		c-0.4-1.9-1.2-3.6-2.7-4.8c-2.2-1.8-5.4-1.6-7.4,0.5c-0.6,0.7-1.1,1.5-1.5,2.4c-0.7,1.4-0.9,2.9-1.1,4.5c-0.3,2.4-0.2,4.7,0,7.1
		c0.2,2.4,0.6,4.8,1.4,7.1c0.7,2.1,1.8,3.8,3.5,5.2c1.5,1.3,3.2,1.8,5.2,1.3c0.2-0.1,0.4,0,0.6-0.1c2.1-0.5,3.8-1.5,4.7-3.6
		c0.4-0.8,0.5-1.7,0.2-2.6c-0.2-0.6-0.6-1.2-1.3-1.3c-0.7-0.2-1.2,0.1-1.7,0.6c-0.4,0.4-0.8,0.8-1.2,1c-0.9,0.6-1.5,0.5-2.1-0.4
		c-0.3-0.4-0.6-0.9-0.8-1.4C208.7,253.7,208.4,250.9,208.4,248.1z M199,255.8C199,255.8,199,255.8,199,255.8c0-1.9-0.1-3.9-0.2-5.8
		c-0.2-2.9-0.4-5.8-0.6-8.6c-0.1-1.1-0.2-2.3-0.4-3.4c-0.3-1.6-1.3-2.4-2.9-2.6c-0.8-0.1-1.6-0.2-2.5-0.2c-1.5,0-2.5,0.7-2.9,2.1
		c-0.2,0.6-0.2,1.2-0.2,1.8c0,2.2,0.1,4.5,0.2,6.7c0.2,3.7,0.4,7.3,0.6,11c0.1,1.5,0.3,2.9,0.5,4.3c0.2,1.5,1.1,2.5,2.6,2.9
		c0.6,0.2,1.2,0.3,1.9,0.4c2.6,0.3,3.8-0.6,3.9-3.3C199,259.3,199,257.6,199,255.8z M211.8,357.8c0-0.2-0.1-0.5-0.2-0.8
		c-0.3-0.8-0.7-1.7-1.1-2.5c-0.8-1.6-1.8-3.2-2.6-4.8c-4.6-8.9-8.7-18.1-12.7-27.3c-2.8-6.5-5.5-13.2-8.2-19.7c-0.4-1-0.9-2-1.4-3
		c-0.5-1-1.3-1.3-2.1-1c-0.7,0.3-1.1,1.1-0.9,2.1c0.3,1.2,0.6,2.4,1.1,3.5c3.8,9.7,7.7,19.5,12.2,28.9c2.7,5.8,5.4,11.6,8.4,17.3
		c1.1,2,2.1,4,3.3,5.9c0.5,0.9,1.3,1.7,2,2.5c0.4,0.4,0.9,0.6,1.5,0.3C211.5,359,211.8,358.6,211.8,357.8z M182.8,178.2
		c-0.3-0.3-0.5-0.6-0.7-0.8c-1.1-1.6-2.3-3.3-3.4-5c-0.4-0.6-0.8-1.2-1.2-1.7c-0.6-0.8-1.4-1.2-2.4-1.1c-0.7,0-1.4,0.1-2.1,0.2
		c-0.6,0.1-1.3,0.2-1.8,0.5c-1,0.4-1.2,1.3-0.7,2.2c0.1,0.2,0.3,0.5,0.5,0.7c2.1,2.8,4.2,5.5,6.3,8.3c0.4,0.5,0.6,0.9,0.6,1.5
		c0,0.3,0,0.6,0,0.9c0,2.8,0,5.6,0.1,8.5c0.1,1.8,0.3,3.6,0.6,5.4c0.2,1.1,0.8,1.7,1.9,1.8c1.2,0.1,2.4,0,3.6-0.5
		c0.8-0.3,1.1-0.8,1-1.6c-0.1-1.2-0.1-2.5-0.2-3.7c-0.2-3.9-0.4-7.8-0.6-11.6c0-0.3,0-0.6,0.2-0.9c1.5-3.2,2.9-6.4,4.4-9.6
		c0.2-0.5,0.4-1,0.5-1.5c0.2-0.7-0.1-1.3-0.7-1.5c-0.6-0.2-1.2,0-1.5,0.6c-1.3,2.7-2.6,5.3-4,8C183.1,177.5,183,177.8,182.8,178.2z
		 M196.8,155.6c0.1,0.4,0.2,0.8,0.3,1.2c0.4,1.4,0.9,2.7,1.3,4.1c0.3,0.9,0.9,1.5,1.9,1.7c1.4,0.3,2.9,0.4,4.3,0.1
		c1-0.2,1.4-0.8,1.3-1.8c-0.1-0.7-0.3-1.3-0.5-1.9c-1.8-5.9-4-11.7-6.1-17.5c-0.3-0.7-0.6-1.5-0.9-2.2c-0.2-0.4-0.5-0.8-0.9-1
		c-1-0.6-2.1-0.7-3.3-0.5c-0.9,0.2-1.5,0.7-1.8,1.6c-0.8,2.6-1.6,5.2-2.3,7.8c-1.3,4.3-2.5,8.7-3.3,13.2c-0.1,0.5-0.1,1,0,1.4
		c0.1,0.4,0.3,0.7,0.8,0.8c0.5,0.1,0.9-0.1,1.1-0.5c0.2-0.4,0.4-0.8,0.5-1.2c0.3-1.1,0.5-2.2,0.7-3.3c0.1-0.6,0.3-1.2,0.4-1.7
		C192.5,155.8,194.6,155.7,196.8,155.6z M217.9,287.4c0.1,0.3,0.1,0.7,0.2,1c0.3,1.5,0.6,3,0.9,4.5c0.1,0.4,0.2,0.8,0.4,1.1
		c0.4,0.8,1.3,1.2,2.2,1c0.9-0.2,1.5-1,1.5-1.9c0-0.3,0-0.6-0.1-0.9c-0.6-3.2-1.1-6.3-1.8-9.5c-0.6-3.1-1.3-6.3-2-9.4
		c-0.2-0.9-0.6-1.8-1.1-2.6c-1.1-1.8-3.2-1.9-4.6-0.4c-0.5,0.5-0.8,1.1-1.1,1.8c-1.1,2.1-1.5,4.4-1.7,6.8c-0.4,4.2-0.6,8.3-0.5,12.5
		c0,0.4,0,0.9,0.1,1.3c0.1,0.4,0.3,0.7,0.5,1c0.7,0.9,1.8,0.9,2.6,0c0.4-0.5,0.6-1,0.6-1.6c0-1.3,0.1-2.5,0.1-3.8
		c0-0.3,0.1-0.5,0.1-0.8C215.4,287.4,216.6,287.4,217.9,287.4z M215.7,160.8c-0.2-4.1-0.5-8.1-0.7-12c-0.2-3-0.3-5.9-0.4-8.9
		c0-0.2-0.1-0.5-0.1-0.7c-0.2-0.8-0.7-1.3-1.5-1.3c-1.3,0-2.7,0-4,0.1c-1,0.1-1.6,0.7-1.7,1.6c-0.1,0.8-0.3,1.6-0.3,2.3
		c0,2.3,0,4.6,0.1,6.8c0.1,3,0.4,5.9,0.6,8.9c0.1,1.2,0.1,2.3,0.3,3.4c0.1,1.1,0.9,1.7,2,1.8c2.9,0.3,5.9,0.4,8.8,0.2
		c0.2,0,0.4,0,0.5-0.1c0.6-0.2,1-0.6,0.9-1.2c0-0.5-0.4-1-1.1-1.1c-0.4,0-0.9,0-1.4,0C217.2,160.8,216.5,160.8,215.7,160.8z
		 M219.4,347.1c0.1-0.8-0.3-1.5-0.6-2.2c-4.2-8.1-7.8-16.5-11.2-25c-2-5.1-4.1-10.2-6.2-15.3c-0.4-1.1-1-2.1-1.5-3.1
		c-0.2-0.4-0.6-0.9-1-1.1c-0.9-0.6-1.9-0.2-2.1,0.9c-0.1,0.4-0.1,0.9,0,1.3c0.3,1.1,0.5,2.1,0.9,3.1c3,7.7,6.1,15.3,9.2,23
		c2.4,5.7,5,11.4,8,16.8c0.4,0.7,0.8,1.3,1.3,2c0.4,0.6,1.1,1,1.8,1.2c0.7,0.3,1.4-0.2,1.5-0.9C219.4,347.5,219.4,347.3,219.4,347.1
		z M229.3,160.7c0-0.3-0.1-0.5-0.1-0.7c-0.1-5.5-0.2-11-0.3-16.6c0-1.4-0.2-2.8-0.4-4.2c-0.1-1-0.9-1.7-1.9-1.8
		c-1.1-0.2-2.2-0.1-3.3,0.3c-0.8,0.3-1.3,0.8-1.4,1.7c-0.1,1.2-0.2,2.4-0.3,3.6c-0.1,5.3-0.2,10.7,0.2,16c0.1,0.9,0.2,1.8,0.4,2.7
		c0.2,0.9,0.7,1.4,1.6,1.5c0.6,0,1.2,0.1,1.8,0.1c2.1,0,4.2-0.1,6.3-0.2c0.3,0,0.6,0,0.8-0.1c0.5-0.2,0.9-0.6,0.8-1.2
		c0-0.5-0.4-0.9-0.9-1c-0.3-0.1-0.7-0.1-1.1-0.1C230.8,160.7,230,160.7,229.3,160.7z M218,105.4c-0.1-1.3-0.1-2.7-0.3-4
		c-0.3-2.2-1.1-4.2-2.5-5.9c-0.7-0.9-1.5-1.6-2.6-1.9c-1.5-0.4-2.8,0.4-2.9,1.9c-0.1,0.6,0,1.2,0.1,1.8c0.4,1.6,0.8,3.2,1.2,4.8
		c0.8,3.1,1.4,6.2,1.1,9.4c-0.5,4.1-1.7,7.9-4.1,11.4c-1.2,1.7-2.5,3.3-4,4.7c-0.4,0.4-0.8,0.8-1.1,1.2c-0.4,0.5-0.4,1.1-0.1,1.5
		c0.4,0.5,0.9,0.7,1.4,0.5c0.3-0.1,0.6-0.2,0.9-0.4c0.5-0.3,1.1-0.7,1.5-1.1c3.7-3.4,6.7-7.3,8.8-11.8
		C217.2,113.6,218,109.5,218,105.4z M190.3,285.9c0.6,0,0.9,0.2,1.1,0.6c0.3,0.6,0.6,1.2,0.8,1.8c0.3,1.1,0.6,2.3,0.9,3.4
		c0.1,0.4,0.3,0.9,0.5,1.3c0.3,0.6,0.9,0.9,1.6,0.8c0.6-0.1,1.1-0.5,1.3-1.2c0-0.2,0.1-0.4,0.1-0.6c-0.3-2.9-0.5-5.9-2.8-8.2
		c0.1-0.1,0.2-0.2,0.2-0.3c2.9-3,3.2-6.5,1.6-10.2c-0.8-1.8-2.1-3-4.1-3.4c-1.2-0.3-2.5-0.1-3.7,0.1c-1.4,0.2-2.3,1.2-2.5,2.5
		c-0.2,0.9-0.2,1.8-0.1,2.6c0.2,3.3,0.6,6.5,0.8,9.8c0.2,2.1,0.3,4.1,0.5,6.2c0,0.5,0.2,1,0.4,1.4c0.4,0.9,1.6,1.3,2.6,1
		c0.8-0.2,1.2-0.9,1.2-2c-0.1-1.1-0.2-2.2-0.3-3.3C190.4,287.5,190.4,286.7,190.3,285.9z M168.1,215.8c0.1,0,0.1,0,0.2,0
		c0.1,0.3,0.3,0.5,0.4,0.8c1.3,2.4,2.5,4.9,3.8,7.3c0.7,1.2,1.5,2.4,2.3,3.6c0.3,0.4,0.7,0.8,1.2,1.1c1,0.7,2.1,0.4,2.7-0.7
		c0.2-0.4,0.3-0.8,0.4-1.2c0.1-1.2,0.3-2.4,0.3-3.5c0.1-2.2,0.1-4.4,0.1-6.6c0-1.4-0.1-2.8-0.2-4.2c-0.1-0.7-0.3-1.5-0.5-2.2
		c-0.2-0.5-0.6-0.8-1.2-0.7c-0.5,0-0.8,0.3-1,0.8c-0.1,0.2-0.2,0.4-0.2,0.6c-0.1,0.8-0.2,1.6-0.2,2.4c0,3.1,0.1,6.1,0.2,9.2
		c0,0.2,0,0.4-0.1,0.7c-0.3-0.3-0.5-0.6-0.7-0.9c-1.4-2.6-2.7-5.2-4.1-7.7c-0.6-1.2-1.4-2.3-2.2-3.3c-0.3-0.4-0.8-0.8-1.3-1.1
		c-1.1-0.6-2.3-0.3-2.8,0.9c-0.2,0.5-0.3,1.1-0.4,1.7c-0.1,1.5-0.1,3-0.1,4.5c0,1.1,0,2.1,0,3.2c0.1,2.5,0.3,4.9,0.5,7.4
		c0,0.4,0.1,0.7,0.2,1.1c0.3,0.7,1,1.1,1.7,1c0.7-0.1,1.2-0.5,1.5-1.1c0.1-0.3,0.2-0.6,0.2-0.9c0-1-0.1-2-0.2-3
		c-0.2-2.6-0.3-5.3-0.5-7.9C168.1,216.4,168.1,216.1,168.1,215.8z M221.2,219.2c-0.2-3.1-1.6-6.9-4.7-9.9c-0.5-0.5-1.1-0.9-1.6-1.3
		c-1.3-0.8-2.6-1.2-4.1-1.1c-2,0.1-3.1,1.4-3,3.3c0.1,1.7,0.3,3.4,0.4,5.1c0.3,3.5,0.6,7,0.9,10.5c0.1,0.7,0.1,1.5,0.3,2.2
		c0.5,2,1.8,2.7,3.7,2.3C217,229.5,221.3,226.1,221.2,219.2z M177.9,281.1c0.1-1,0.1-1.9,0.2-2.9c0.1-0.9,0.4-1.8,1-2.6
		c0.7-0.9,1.5-0.9,2.3-0.2c0.3,0.2,0.5,0.5,0.8,0.7c0.8,0.5,1.7,0,1.8-0.9c0-0.2,0-0.5,0-0.7c-0.3-1.7-1.5-3-3.2-3.4
		c-1.6-0.4-3,0-4.2,0.9c-1.6,1.1-2.7,2.6-3.3,4.4c-0.8,2.4-1,4.8-0.8,7.3c0.1,1.9,0.4,3.8,1.2,5.6c0.8,1.8,2.1,3.1,3.8,4.1
		c1.4,0.8,2.8,0.8,4.2,0c2.9-1.6,4.1-4.6,3-8.1c-0.1-0.3-0.2-0.5-0.4-0.7c-0.4-0.5-0.9-0.7-1.5-0.5c-0.6,0.1-0.8,0.6-0.9,1.1
		c-0.1,0.4,0,0.8-0.1,1.2c-0.1,0.8-0.2,1.6-0.5,2.3c-0.4,0.9-1.4,1-1.9,0.1c-0.3-0.5-0.5-1-0.7-1.6
		C178.2,285.1,178,283.1,177.9,281.1z M202.8,274c0.6,0,1.1-0.1,1.6-0.1c0.5,0,1-0.1,1.4-0.1c1-0.1,1.7-0.8,1.8-1.7
		c0.1-0.9-0.4-1.8-1.4-2.1c-0.3-0.1-0.7-0.2-1-0.2c-1.2,0-2.4,0-3.6,0c-1.9,0.1-3,1-3.4,2.9c-0.2,0.9-0.3,1.9-0.2,2.8
		c0.1,2.6,0.2,5.2,0.3,7.7c0.1,1.8,0.2,3.5,0.3,5.3c0.1,1.1,0.2,2.2,0.5,3.2c0.5,1.8,1.6,2.7,3.4,2.7c1.6,0,3.3-0.2,4.9-0.3
		c0.1,0,0.2-0.1,0.3-0.1c0.7-0.3,1.2-1,1.1-1.7c-0.1-0.7-0.7-1.3-1.5-1.4c-0.5,0-1.1,0-1.6,0.1c-0.3,0-0.7,0.1-1,0
		c-0.7,0-0.8-0.1-1-0.8c-0.1-0.5-0.2-1.1-0.3-1.6c-0.1-1-0.2-2-0.3-3c0.5-0.1,1-0.1,1.4-0.1c0.5,0,1,0,1.5,0c1-0.1,1.8-0.7,1.9-1.6
		c0.1-0.9-0.4-1.8-1.3-2.1c-0.3-0.1-0.6-0.2-1-0.2c-0.9,0-1.7,0-2.7,0C202.9,279.1,202.8,276.6,202.8,274z M228.5,114.2
		c0-1.5-0.3-2.8-1.2-4c-1.1-1.4-2.7-1.5-4-0.3c-0.3,0.3-0.6,0.6-0.8,1c-0.5,0.9-1,1.9-1.4,2.9c-0.6,1.5-1.1,3-1.7,4.4
		c-1.6,4-3.2,8-6.1,11.3c-0.5,0.6-0.5,1.3-0.1,1.8c0.4,0.5,1,0.6,1.7,0.3c1.6-0.8,3.2-1.6,4.7-2.8c2.3-1.7,4-3.9,5.7-6.2
		c1.1-1.5,1.9-3.1,2.5-4.9C228.2,116.5,228.5,115.4,228.5,114.2z M227.7,331.2c0,0,0.1,0,0.1,0c-0.2-0.6-0.3-1.2-0.6-1.8
		c-0.6-1.3-1.2-2.6-1.9-3.8c-3.7-7-7-14.1-9.9-21.5c-0.3-0.8-0.7-1.6-1.1-2.4c-0.2-0.5-0.6-0.9-0.9-1.2c-0.4-0.5-1-0.6-1.6-0.3
		c-0.6,0.2-0.9,0.7-1,1.3c0,0.5,0,1,0.1,1.4c0.3,1.2,0.6,2.3,1,3.5c3,8,6.7,15.7,10.8,23.2c0.4,0.7,0.9,1.4,1.3,2.1
		c0.4,0.6,1.1,1,1.8,1.2c0.7,0.3,1.5-0.2,1.7-0.9C227.7,331.6,227.7,331.4,227.7,331.2z M252.2,218.6c0,2.9,0.8,5.3,2.4,7.2
		c0.4,0.5,0.9,0.9,1.5,1.3c0.3,0.2,0.7,0.4,1.1,0.4c0.9,0.1,1.5-0.6,1.3-1.5c-0.1-0.4-0.3-0.8-0.5-1.2c-0.9-1.6-1.4-3.3-1.6-5.2
		c-0.2-1.9,0.2-3.6,1.5-5.1c0.6-0.7,1.4-1.2,2.4-1.2c1.3,0.1,2.2,0.8,2.8,2c0.6,1.1,0.6,2.2-0.1,3.3c-0.6,1-1.7,1.2-2.7,0.6
		c-0.1-0.1-0.2-0.1-0.3-0.2c-0.5-0.2-1-0.2-1.3,0.2c-0.3,0.3-0.4,0.8-0.2,1.2c0.2,0.3,0.4,0.6,0.6,0.9c0.8,0.7,1.8,1,2.9,0.9
		c2.2-0.2,4.1-2,4.6-4.2c0.7-3-0.9-6.4-3.8-7.9c-1.4-0.7-2.9-0.9-4.4-0.4c-1.4,0.4-2.5,1.2-3.5,2.3C253,214,252.2,216.3,252.2,218.6
		z M198.7,211.5c1-0.1,2-0.1,2.9-0.2c0.4,0,0.9-0.1,1.2-0.2c0.9-0.4,1.1-1.4,0.3-2c-0.2-0.2-0.5-0.3-0.8-0.4
		c-1.4-0.4-2.9-0.6-4.4-0.4c-1.5,0.2-2.6,1-3,2.6c-0.2,0.7-0.3,1.4-0.3,2.1c-0.1,2.5,0.1,4.9,0.4,7.4c0.2,2.1,0.5,4.3,0.9,6.4
		c0.4,2.1,1.6,3.2,3.7,3.1c1.6,0,3.3-0.3,4.9-0.6c0.5-0.1,1-0.4,1.3-0.7c0.8-0.7,0.6-1.7-0.3-2.2c-0.5-0.2-1-0.3-1.6-0.4
		c-0.6,0-1.1,0.1-1.7,0.1c-0.8,0.1-1.6,0.2-2.5,0c-0.1-1.2-0.3-2.4-0.4-3.7c0.5,0,0.8,0,1.1-0.1c0.7-0.1,1.3-0.2,2-0.4
		c0.7-0.2,1.1-0.7,1-1.3c0-0.6-0.4-1.1-1.1-1.2c-0.6-0.1-1.3-0.1-2-0.2c-0.4,0-0.8,0-1.3,0C198.7,216.6,198.5,214.1,198.7,211.5z
		 M186,211.4c0.8-0.1,1.6-0.2,2.4-0.3c0.7-0.1,1.3-0.2,2-0.3c0.6-0.1,0.9-0.5,0.9-0.9c0-0.4-0.3-0.8-0.9-0.9
		c-0.4-0.1-0.8-0.2-1.3-0.2c-0.9-0.1-1.8-0.1-2.7-0.3c-2-0.3-3.5,0.6-4,2.6c-0.3,1-0.4,2-0.4,3c-0.1,2.9,0.2,5.7,0.6,8.5
		c0.2,1.4,0.4,2.8,1,4c0.7,1.6,2,2.5,3.7,2.4c1.3,0,2.7-0.2,4-0.3c0.5-0.1,1-0.3,1.4-0.5c0.6-0.3,0.9-0.8,0.8-1.4
		c-0.1-0.6-0.5-1-1.1-1.1c-0.6-0.1-1.3-0.2-1.9-0.2c-1,0-2,0.1-3,0.2c-0.5,0-0.8-0.2-0.8-0.6c-0.2-0.9-0.3-1.8-0.5-2.8
		c0.4,0,0.7,0,1,0c0.9,0,1.8,0,2.7,0c0.4,0,0.9-0.1,1.2-0.3c0.6-0.2,0.9-0.7,0.9-1.3c0-0.7-0.4-1.1-0.9-1.3
		c-0.3-0.1-0.7-0.2-1.1-0.2c-1.1,0-2.2,0-3.4,0c-0.3,0-0.5,0-0.8,0C185.9,216.5,185.7,214,186,211.4z M241.3,211.8
		c0.8,0.1,1,0.2,1.9,0.8c0.4,0.3,0.8,0.6,1.2,0.8c0.7,0.4,1.4,0,1.6-0.8c0-0.3,0-0.5-0.1-0.8c-0.3-1.2-1.1-2.1-2.1-2.8
		c-2.9-2-5.9-0.8-6.6,2.7c0,0.2-0.1,0.4-0.1,0.6c-0.1,1.5,0.4,2.7,1.2,3.9c1,1.4,2.3,2.5,3.5,3.6c0.7,0.6,1.3,1.2,1.9,1.8
		c0.4,0.4,0.7,1,1,1.5c0.3,0.5,0.1,0.7-0.4,1c-0.6,0.2-1.1,0.1-1.6-0.3c-0.5-0.3-1-0.6-1.6-0.6c-1,0.1-1.7,0.9-1.4,1.9
		c0.1,0.4,0.4,0.9,0.7,1.2c2.2,2.4,6.1,1.6,7.6-0.2c0.8-1,1.2-2.2,0.9-3.5c-0.2-1-0.6-1.9-1.2-2.6c-0.8-0.9-1.6-1.8-2.5-2.7
		c-0.8-0.8-1.7-1.5-2.5-2.3c-0.5-0.4-0.8-1-1.2-1.5C241,213.2,240.9,212.5,241.3,211.8z M247.3,192c-0.1-0.5-0.1-0.8-0.2-1.2
		c-0.2-1-0.3-2.1-0.6-3.1c-0.2-0.7-0.5-1.5-1-2.1c-1-1.3-2.9-1-3.5,0.5c-0.2,0.5-0.3,1.1-0.3,1.6c-0.2,3.2,0.4,6.2,1.8,9
		c0.2,0.4,0.5,0.8,0.7,1.2c1,1.3,2.6,2.2,4.6,0.6c1.3-1.1,2.6-2.3,3.9-3.6c0.7-0.7,1.3-1.6,1.8-2.5c0.3-0.6,0.6-1.2,0.7-1.9
		c0.3-1.7-1-3-2.7-2.5c-0.7,0.2-1.3,0.5-1.9,0.9c-0.9,0.7-1.8,1.6-2.7,2.3C247.8,191.5,247.6,191.7,247.3,192z M235.8,150.7
		c0,0.5,0.1,1.2,0.2,1.9c0.3,2.2,0.8,4.2,2,6.1c0.2,0.4,0.5,0.7,0.8,1c0.2,0.2,0.5,0.3,0.8,0.3c0.4-0.1,0.4-0.5,0.4-0.8
		c0-0.2,0-0.5-0.1-0.7c-0.1-0.6-0.3-1.2-0.5-1.9c-0.6-2.6-0.8-5.1-0.3-7.8c0.2-1,0.5-1.9,1.1-2.8c0.6-0.9,1.4-1.6,2.4-2
		c1.2-0.4,2.3,0,3.1,1.2c0.8,1.2,0.8,2.3-0.1,3.2c-0.4,0.4-0.9,0.7-1.3,1.1c-0.7,0.5-0.9,1.2-0.6,1.8c0.3,0.7,1,1,1.8,0.7
		c2.1-0.7,3.6-2.1,4.2-4.2c0.6-1.9-0.1-3.7-1.3-5.2c-1.8-2.4-4.9-3.1-7.7-1.7c-1.8,0.9-3.1,2.3-3.9,4.2
		C236.1,147,235.9,148.8,235.8,150.7z M245.3,250.3c3.2,0,6.4,0,9.6-0.5c1-0.2,1.9-0.4,2.8-0.9c1.6-1,1.6-2.9-0.1-3.8
		c-2.1-1-4.3-1.6-6.7-1.5c-1.8,0.1-3.5,0.5-5.2,1c-2,0.5-4,1.2-5.8,2.1c-0.5,0.3-1,0.6-1.4,1c-0.8,0.8-0.4,2,0.7,2.4
		c0.3,0.1,0.7,0.1,1,0.1C241.9,250.3,243.6,250.3,245.3,250.3z M172.8,195c0-2.5-0.5-5-1.6-7.3c-1.1-2.4-3-3.9-5.5-4.5
		c-2-0.5-3.8-0.1-5.3,1.4c-1.3,1.4-1.9,3.1-1.7,5c0.2,2.3,1.9,4.1,4.1,4.2c0.6,0,1.2-0.1,1.8-0.3c0.4-0.1,0.7-0.5,0.6-1
		c0-0.5-0.3-0.8-0.7-1c-0.3-0.1-0.6-0.1-0.9-0.2c-1-0.1-1.7-0.6-2-1.5c-0.4-1.1,0-2.1,0.6-3c0.6-0.8,1.4-1.1,2.4-0.9
		c1.3,0.3,2.4,1,3.1,2.1c0.5,0.8,0.9,1.6,1.2,2.5c0.8,2.4,0.9,4.9,0.6,7.4c-0.1,0.9-0.2,1.8-0.3,2.7c0,0.6,0.3,1.1,0.7,1.2
		c0.5,0.2,1-0.1,1.3-0.5c0.3-0.4,0.6-0.9,0.7-1.5C172.5,198.3,172.8,196.7,172.8,195z M182.9,156.6c0-0.3,0-0.7,0-1
		c-0.2-1.8-0.6-3.5-1.7-4.9c-1.3-1.6-3-2.4-5.1-2.2c-2.7,0.3-4.8,2.1-5.4,4.8c-0.4,1.6,0,3,1.1,4.1c0.9,1,2.4,1.3,3.5,0.9
		c0.7-0.3,1.1-0.8,0.9-1.4c-0.1-0.5-0.6-0.8-1.4-0.7c-0.1,0-0.1,0-0.2,0c-0.4,0.1-0.7-0.1-0.9-0.4c-0.4-0.4-0.5-1-0.4-1.5
		c0.1-1.1,1.1-2.1,2.1-2.4c1.1-0.3,2.2,0.2,2.8,1.2c0.3,0.6,0.6,1.3,0.7,1.9c0.4,1.9,0.2,3.8-0.2,5.7c-0.1,0.5-0.2,0.9-0.3,1.4
		c0,0.5,0.1,1,0.6,1.2c0.5,0.3,1,0.2,1.4-0.2c0.5-0.4,1-0.9,1.3-1.5C182.6,160.2,182.9,158.4,182.9,156.6z M237,120.4
		c0-0.9-0.2-1.8-0.8-2.6c-0.8-1.1-2-1.3-3-0.4c-0.5,0.5-1,1.1-1.3,1.7c-0.9,1.6-1.7,3.2-2.5,4.7c-1.1,2.1-2.4,4.1-3.9,5.9
		c-0.2,0.2-0.4,0.5-0.5,0.7c-0.4,0.6-0.3,1.2,0,1.6c0.4,0.4,0.9,0.5,1.5,0.3c0.6-0.2,1.1-0.5,1.7-0.7c3.8-1.8,6.4-4.7,8.2-8.4
		C236.8,122.3,237,121.4,237,120.4z M224.2,301.4c0.1,0.4,0.2,1,0.4,1.6c0.5,1.3,1,2.6,1.5,3.9c1.4,3.4,3.2,6.7,5.3,9.7
		c0.5,0.7,1.1,1.3,1.7,1.9c0.4,0.4,1.1,0.5,1.6,0.2c0.6-0.3,0.7-0.9,0.7-1.5c0-0.3-0.1-0.5-0.2-0.8c-0.2-0.4-0.3-0.8-0.5-1.2
		c-2.1-3.5-3.7-7.3-5.4-11c-0.4-0.9-0.8-1.9-1.2-2.8c-0.2-0.5-0.6-1-0.9-1.5c-0.4-0.5-1-0.8-1.7-0.6c-0.7,0.2-1.1,0.7-1.2,1.5
		C224.2,300.9,224.2,301.1,224.2,301.4z M175,248c-1.7,0.1-3.3,0.2-4.9,0.3c-1.1,0.1-2.3,0.4-3.2,1.1c-1.4,1-1.3,2.8,0.3,3.5
		c0.7,0.3,1.5,0.5,2.3,0.6c2.1,0.3,4.2,0.1,6.2-0.3c2.2-0.5,4.4-1,6.5-1.5c0.6-0.1,1-0.5,1.1-1.2c0.1-0.7-0.2-1.2-0.8-1.5
		c-0.5-0.3-1.1-0.5-1.6-0.6C178.9,248.2,176.9,248.1,175,248z M229.9,216C229.9,216,229.9,216,229.9,216c0.1,3.5,0.2,6.9,0.4,10.4
		c0,0.2,0,0.5,0.1,0.7c0.3,1.1,1.1,1.7,2.1,1.6c1-0.1,1.7-0.9,1.8-2c0-0.5,0-1.1,0-1.6c-0.1-3.5-0.3-6.9-0.4-10.4
		c-0.1-1.1-0.1-2.3-0.3-3.4c-0.1-0.6-0.3-1.2-0.7-1.8c-0.7-1-2-0.9-2.5,0.2c-0.2,0.4-0.4,0.9-0.4,1.4
		C229.9,212.7,229.9,214.4,229.9,216z M154.9,241.7c-0.3-0.1-0.5-0.2-0.8-0.3c-0.6-0.2-1.3-0.4-1.9-0.5c-0.9-0.1-1.6,0.2-2.1,0.9
		c-0.5,0.8-0.4,1.5,0.1,2.2c0.2,0.4,0.5,0.8,0.9,1c1.4,1.2,3,2,4.9,2.3c2.3,0.5,3.9-0.4,4.2-3c0.2-1.5,0.2-3,0-4.4
		c-0.1-0.6-0.3-1.3-0.6-1.8c-0.8-1.3-2.4-1.3-3.3-0.1c-0.3,0.4-0.5,0.8-0.6,1.3C155.3,240.1,155.1,240.9,154.9,241.7z M249.1,236.1
		c0-1.3-0.7-2.2-1.8-2.3c-0.8-0.1-1.6,0.1-2.3,0.5c-2.9,1.8-5.4,4.1-7.3,7c-0.2,0.2-0.3,0.5-0.4,0.8c-0.3,1,0.4,1.9,1.5,1.9
		c0.4,0,0.8-0.2,1.1-0.3c1.3-0.7,2.6-1.3,3.9-2c1.1-0.7,2.1-1.4,3.1-2.2c0.8-0.6,1.4-1.4,1.8-2.2C248.9,236.9,249,236.4,249.1,236.1
		z M172,236.4c-0.5,0-0.7,0.1-0.9,0.1c-1.4,0.3-1.9,1.4-1.2,2.7c0.2,0.3,0.5,0.6,0.7,0.9c2.7,2.7,6,4.2,9.7,5c0.4,0.1,0.8,0,1.2-0.1
		c1-0.3,1.3-1.2,0.8-2.1c-0.2-0.3-0.4-0.5-0.6-0.7c-1.3-1.1-2.6-2.4-4-3.4c-1.1-0.8-2.4-1.4-3.7-2
		C173.3,236.6,172.5,236.5,172,236.4z M175.1,265.1c0.7,0,1.5-0.3,2.1-0.7c1.1-0.8,2.2-1.7,3.2-2.7c1.4-1.3,2.6-2.7,4-4
		c0.6-0.6,0.8-1.3,0.4-1.9c-0.3-0.6-1.1-0.9-1.9-0.6c-0.6,0.2-1.3,0.6-1.9,1c-1.5,1-3.1,2-4.5,3c-0.9,0.7-1.7,1.5-2.4,2.3
		c-0.3,0.3-0.5,0.8-0.7,1.3C172.9,264,173.8,265.1,175.1,265.1z M238.2,254.1c-0.3,0-0.5,0-0.7,0.1c-1.1,0.2-1.5,1.4-0.8,2.2
		c0.1,0.2,0.3,0.3,0.5,0.4c1.1,0.8,2.2,1.7,3.3,2.4c1.2,0.8,2.5,1.4,3.7,2.1c0.8,0.4,1.7,0.6,2.6,0.6c0.8-0.1,1.4-0.4,1.7-1.2
		c0.3-0.8,0-1.4-0.5-1.9c-0.7-0.8-1.5-1.5-2.5-1.9c-2-0.9-4.1-1.7-6.1-2.5C239,254.2,238.5,254.1,238.2,254.1z M248.7,174.5
		c-0.5-0.4-1-0.7-1.5-1c-0.7-0.4-1.4-0.3-1.9,0.2c-0.5,0.5-0.6,1.1-0.3,1.8c0.6,1.3,1.5,2.4,2.8,3.1c0.6,0.3,1.3,0.5,2,0.7
		c1.3,0.2,2.3-0.4,2.7-1.6c0.3-0.9,0.5-1.8,0.6-2.7c0.1-0.4,0-0.8-0.1-1.3c-0.2-0.8-0.7-1.4-1.6-1.6c-0.8-0.1-1.5,0.2-1.9,0.9
		C249.3,173.5,249,174,248.7,174.5z"/>
	<path class="st89" d="M205.5,184.4c-0.1,2.5-0.4,5.6-1.3,8.5c-0.2,0.7-0.6,1.4-0.9,2.1c-0.1,0.1-0.2,0.3-0.3,0.4
		c-0.8,1-1.5,1-2.2-0.1c-0.9-1.3-1.3-2.7-1.5-4.2c-0.8-4.7-0.7-9.3,0.1-13.9c0.2-1.1,0.7-2.1,1.4-2.9c0.8-0.9,1.6-0.9,2.3,0.1
		c0.5,0.7,0.9,1.5,1.2,2.3C205.2,178.7,205.5,181.3,205.5,184.4z"/>
	<path class="st89" d="M196.1,153.2c-1.7,0.1-3.4,0.2-5.1,0.3c0-0.8,2.3-9.5,2.7-10.4C194.5,146.5,195.3,149.8,196.1,153.2z"/>
	<path class="st89" d="M217.1,283.3c-0.9,0.1-1.7,0.2-2.6,0.4c0.3-2.4,0.5-4.6,0.8-6.9c0.1,0,0.1,0,0.2,0
		C216.4,278.8,216.8,281,217.1,283.3z"/>
	<path class="st89" d="M190.1,282.5c-0.3-2.9-0.5-5.8-0.8-8.7c0.7-0.1,1.2,0.1,1.7,0.4c2.5,2,2.8,6.3-0.7,8.3
		C190.2,282.5,190.2,282.5,190.1,282.5z"/>
	<path class="st89" d="M212.4,226.8c-0.8-5.4-1.1-10.7-1.4-16.1c1.1,0.1,1.9,0.6,2.6,1.2c1,0.9,1.8,2,2.4,3.2
		c0.9,1.9,1.6,3.9,1.4,6.1c-0.2,2.5-1.9,4.6-4.3,5.4C213,226.8,212.8,226.8,212.4,226.8z"/>
</g>
</svg>
